<?xml version="1.0" encoding="iso-8859-1"?>
<!-- Generator: Adobe Illustrator 19.0.0, SVG Export Plug-In . SVG Version: 6.00 Build 0)  -->
<svg xmlns="http://www.w3.org/2000/svg" xmlns:xlink="http://www.w3.org/1999/xlink" version="1.1" id="Layer_1" x="0px" y="0px" viewBox="0 0 512 512" style="enable-background:new 0 0 512 512;" xml:space="preserve" width="512px" height="512px">
<g>
	<g>
		<g>
			<path d="M459.94,101.408L361.241,2.709C359.507,0.975,357.153,0,354.699,0H58.602c-5.11,0-9.253,4.142-9.253,9.253v493.494     c0,5.111,4.143,9.253,9.253,9.253h394.795c5.11,0,9.253-4.142,9.253-9.253V107.952     C462.651,105.498,461.676,103.145,459.94,101.408z M363.952,31.591l67.108,67.108h-67.108V31.591z M444.145,493.494H67.855     V18.506h277.59v89.446c0,5.111,4.143,9.253,9.253,9.253h89.446V493.494z" fill="#006DF0"/>
			<path d="M206.651,129.542h3.084v40.096c0,5.111,4.143,9.253,9.253,9.253h74.024c5.11,0,9.253-4.142,9.253-9.253v-40.096h3.084     c3.743,0,7.116-2.254,8.549-5.712c1.432-3.458,0.64-7.437-2.006-10.085l-49.349-49.349c-3.614-3.612-9.473-3.612-13.085,0     l-21.217,21.216v-2.335c0-5.111-4.143-9.253-9.253-9.253c-5.11,0-9.253,4.142-9.253,9.253v20.841l-9.627,9.628     c-2.646,2.648-3.438,6.626-2.006,10.085C199.534,127.288,202.907,129.542,206.651,129.542z M256,84.025l30.106,30.106     c-1.459,1.638-2.347,3.795-2.347,6.159v40.096h-55.518v-40.096c0-2.364-0.887-4.52-2.347-6.158L256,84.025z" fill="#006DF0"/>
			<path d="M123.373,231.325c0,5.111,4.143,9.253,9.253,9.253h234.41c5.11,0,9.253-4.142,9.253-9.253s-4.143-9.253-9.253-9.253     h-234.41C127.516,222.072,123.373,226.214,123.373,231.325z" fill="#006DF0"/>
			<path d="M123.373,268.337c0,5.111,4.143,9.253,9.253,9.253h246.747c5.11,0,9.253-4.142,9.253-9.253     c0-5.111-4.143-9.253-9.253-9.253H132.627C127.516,259.084,123.373,263.226,123.373,268.337z" fill="#006DF0"/>
			<path d="M132.627,314.602H256c5.11,0,9.253-4.142,9.253-9.253c0-5.111-4.143-9.253-9.253-9.253H132.627     c-5.11,0-9.253,4.142-9.253,9.253C123.373,310.461,127.516,314.602,132.627,314.602z" fill="#006DF0"/>
			<path d="M132.627,363.952h234.41c5.11,0,9.253-4.142,9.253-9.253s-4.143-9.253-9.253-9.253h-234.41     c-5.11,0-9.253,4.142-9.253,9.253S127.516,363.952,132.627,363.952z" fill="#006DF0"/>
			<path d="M379.373,382.458H132.627c-5.11,0-9.253,4.142-9.253,9.253c0,5.111,4.143,9.253,9.253,9.253h246.747     c5.11,0,9.253-4.142,9.253-9.253C388.627,386.599,384.484,382.458,379.373,382.458z" fill="#006DF0"/>
			<path d="M256,419.47H132.627c-5.11,0-9.253,4.142-9.253,9.253s4.143,9.253,9.253,9.253H256c5.11,0,9.253-4.142,9.253-9.253     S261.11,419.47,256,419.47z" fill="#006DF0"/>
		</g>
	</g>
</g>
<g>
</g>
<g>
</g>
<g>
</g>
<g>
</g>
<g>
</g>
<g>
</g>
<g>
</g>
<g>
</g>
<g>
</g>
<g>
</g>
<g>
</g>
<g>
</g>
<g>
</g>
<g>
</g>
<g>
</g>
</svg>
