<?xml version="1.0" encoding="iso-8859-1"?>
<!-- Generator: Adobe Illustrator 19.0.0, SVG Export Plug-In . SVG Version: 6.00 Build 0)  -->
<svg xmlns="http://www.w3.org/2000/svg" xmlns:xlink="http://www.w3.org/1999/xlink" version="1.1" id="Layer_1" x="0px" y="0px" viewBox="0 0 512.001 512.001" style="enable-background:new 0 0 512.001 512.001;" xml:space="preserve" width="512px" height="512px">
<g>
	<g>
		<g>
			<path d="M502.608,200.989c-14.572-7.592-46.497-7.491-59.057,8.21c-4.833,6.041-9.271,11.777-13.971,17.849     c-12.229,15.799-26.089,33.708-51.529,62.782c-5.681,6.492-13.091,11.896-21.699,16.402c0.276-1.283,0.488-2.584,0.599-3.908     c0.884-10.563-3.954-20.811-12.628-26.745c-10.243-7.009-24.011-7.171-37.775-0.449c-17.697,8.638-37.405,8.509-56.461,8.379     c-2.299-0.016-4.581-0.03-6.839-0.03c-8.054,0-16.418-3.522-26.102-7.6c-13.129-5.53-28.011-11.796-47.438-11.796     c-21.931,0-43.243,12.864-56.569,22.937v-4.081c0-4.464-3.618-8.081-8.081-8.081H8.081c-4.463,0-8.081,3.617-8.081,8.081v161.627     c0,4.464,3.618,8.081,8.081,8.081h96.976c4.463,0,8.081-3.617,8.081-8.081v-15.457c35.017,4.85,66.491,6.805,94.825,6.805     c56.813,0,101.025-7.831,135.943-15.792c33.642-7.673,96.258-73.443,131.37-137.989c6.601-12.134,13.582-23.676,19.74-33.859     c8.51-14.071,14.658-24.236,16.472-30.4C512.224,215.382,513.751,206.796,502.608,200.989z M96.977,436.485H16.164V291.021     h80.813V436.485z M481.189,239.91c-6.249,10.331-13.331,22.04-20.107,34.5c-35.231,64.764-94.875,124.048-120.766,129.953     c-51.341,11.706-123.337,23.1-227.175,8.419V307.993c7.657-6.928,32.659-27.748,56.569-27.748     c16.164,0,28.874,5.353,41.166,10.529c10.828,4.559,21.056,8.866,32.374,8.866c2.223,0,4.467,0.015,6.731,0.03     c19.94,0.127,42.556,0.286,63.66-10.02c8.391-4.098,16.249-4.365,21.556-0.735c3.944,2.698,6.056,7.206,5.649,12.057     c-0.546,6.512-5.571,12.456-13.793,16.357c-41.837,11.398-94.412,11.402-125.018,11.402c-4.463,0-8.081,3.617-8.081,8.081     s3.618,8.081,8.081,8.081c30.202,0,65.265-0.442,99.192-5.723c42.943-6.684,72.052-19.342,88.99-38.7     c25.76-29.439,39.778-47.552,52.147-63.532c4.658-6.02,9.059-11.705,13.809-17.644c3.187-3.984,11.041-6.662,20.495-6.988     c8.743-0.306,15.652,1.496,18.549,3.021C492.992,220.395,487.236,229.913,481.189,239.91z" fill="#006DF0"/>
			<path d="M330.252,129.394c7.426,0,13.469-6.041,13.471-13.472c-0.002-7.425-6.045-13.466-13.469-13.466     c-7.425,0-13.468,6.041-13.47,13.472C316.786,123.352,322.828,129.394,330.252,129.394z" fill="#006DF0"/>
			<path d="M223.585,238.292h30.477c4.463,0,8.08-3.618,8.08-8.081v-7.157h7.158c2.143,0,8.081-2.969,8.081-8.081v-7.158h7.157     c4.464,0,8.081-3.617,8.081-8.081v-7.157h7.158c2.143,0,4.198-0.851,5.715-2.366l18.113-18.113     c2.208,0.261,4.434,0.39,6.655,0.39c0.002,0,0.002,0,0.003,0c15.108,0,29.312-5.882,39.994-16.565     c22.056-22.057,22.056-57.943-0.001-80c-10.685-10.686-24.892-16.569-40-16.569c-15.11,0-29.317,5.883-40.002,16.569     c-15.533,15.533-20.548,38.614-13.285,58.998l-59.097,59.097c-1.516,1.516-2.367,3.571-2.367,5.715v30.476     C215.503,234.674,219.122,238.292,223.585,238.292z M231.666,203.081l60.545-60.544c2.421-2.422,3.054-6.107,1.577-9.198     c-7.364-15.421-4.193-33.902,7.893-45.986c7.631-7.632,17.779-11.834,28.572-11.834c10.793,0,20.94,4.202,28.572,11.833     c15.754,15.755,15.754,41.389,0.001,57.144c-7.63,7.63-17.775,11.83-28.566,11.83c0,0-0.001,0-0.002,0     c-2.648,0-5.306-0.26-7.897-0.774c-2.648-0.519-5.377,0.307-7.285,2.213l-18.648,18.65h-11.891c-4.464,0-8.081,3.617-8.081,8.081     v7.157h-7.157c-4.464,0-8.081,3.617-8.081,8.081v7.157h-7.157h-0.001c-4.213,0-8.081,3.519-8.081,8.081v7.158h-14.313V203.081z" fill="#006DF0"/>
			<path d="M56.569,377.222c7.425,0,13.468-6.041,13.471-13.472c-0.003-7.425-6.045-13.466-13.469-13.466     c-7.425,0-13.468,6.041-13.47,13.472C43.104,371.18,49.145,377.222,56.569,377.222z" fill="#006DF0"/>
		</g>
	</g>
</g>
<g>
</g>
<g>
</g>
<g>
</g>
<g>
</g>
<g>
</g>
<g>
</g>
<g>
</g>
<g>
</g>
<g>
</g>
<g>
</g>
<g>
</g>
<g>
</g>
<g>
</g>
<g>
</g>
<g>
</g>
</svg>
