<?xml version="1.0" encoding="iso-8859-1"?>
<!-- Generator: Adobe Illustrator 19.0.0, SVG Export Plug-In . SVG Version: 6.00 Build 0)  -->
<svg xmlns="http://www.w3.org/2000/svg" xmlns:xlink="http://www.w3.org/1999/xlink" version="1.1" id="Layer_1" x="0px" y="0px" viewBox="0 0 512.001 512.001" style="enable-background:new 0 0 512.001 512.001;" xml:space="preserve" width="512px" height="512px">
<g>
	<g>
		<g>
			<path d="M261.969,171.262c-3.297-3.295-8.64-3.295-11.936,0l-19.351,19.351v-2.13c0-4.662-3.778-8.44-8.44-8.44     c-4.662,0-8.44,3.778-8.44,8.44v19.009l-8.782,8.782c-2.414,2.414-3.135,6.044-1.829,9.198c1.305,3.154,4.383,5.21,7.797,5.21     h2.813v36.571c0,4.662,3.778,8.44,8.44,8.44h67.516c4.662,0,8.44-3.778,8.44-8.44v-36.573h2.813c3.413,0,6.492-2.056,7.797-5.21     c1.306-3.154,0.585-6.783-1.829-9.198L261.969,171.262z M281.319,222.242v36.571h-50.637v-36.571c0-2.156-0.809-4.123-2.14-5.616     l27.459-27.459l27.459,27.459C282.128,218.119,281.319,220.086,281.319,222.242z" fill="#006DF0"/>
			<path d="M256.001,101.277c-66.701,0-120.966,54.265-120.966,120.965c0,66.701,54.265,120.967,120.966,120.967     s120.966-54.266,120.966-120.967C376.966,155.542,322.701,101.277,256.001,101.277z M256.001,326.33     c-57.393,0-104.087-46.693-104.087-104.088c0-57.393,46.693-104.086,104.087-104.086s104.087,46.692,104.087,104.086     C360.087,279.636,313.394,326.33,256.001,326.33z" fill="#006DF0"/>
			<path d="M256.001,0C133.456,0,33.759,100.357,33.759,223.71c0,111.671,130.132,237.39,218.084,287.195     c1.292,0.731,2.727,1.096,4.158,1.096c1.598,0,3.194-0.453,4.586-1.354c23.885-15.458,85.013-57.62,136.656-115.134     c53.748-59.859,81.001-117.661,81.001-171.804C478.242,100.357,378.545,0,256.001,0z M255.721,493.657     c-44.612-26.175-94.871-69.166-132.254-113.276c-33.225-39.203-72.83-98.206-72.83-156.671     c0-114.048,92.125-206.831,205.363-206.831s205.363,92.783,205.363,206.831C461.363,349.319,298.82,465.163,255.721,493.657z" fill="#006DF0"/>
		</g>
	</g>
</g>
<g>
</g>
<g>
</g>
<g>
</g>
<g>
</g>
<g>
</g>
<g>
</g>
<g>
</g>
<g>
</g>
<g>
</g>
<g>
</g>
<g>
</g>
<g>
</g>
<g>
</g>
<g>
</g>
<g>
</g>
</svg>
